<mxfile host="app.diagrams.net" modified="2023-10-01T05:13:17.870Z" agent="Mozilla/5.0 (Windows NT 10.0; Win64; x64) AppleWebKit/537.36 (KHTML, like Gecko) Chrome/117.0.0.0 Safari/537.36" version="22.0.0" etag="PrptJlWJKUh4T7deee5K" type="github">
  <diagram name="Page-1" id="B8yhD62KwP_mgf17qlU8">
    <mxGraphModel>
      <root>
        <mxCell id="0" />
        <mxCell id="1" parent="0" />
      </root>
    </mxGraphModel>
  </diagram>
</mxfile>
